<?xml version="1.0" encoding="UTF-8"?>
<svg id="_ロゴ" data-name="ロゴ" xmlns="http://www.w3.org/2000/svg" viewBox="0 0 200 100">
  <defs>
    <style>
      .cls-1 {
        fill: #c47b22;
      }
    </style>
  </defs>
  <g id="Rakkan-font-outline">
    <path class="cls-1" d="M33.91,44.02c2.15-.76,4.37-1.36,6.68-1.8,2.31-.44,4.61-.66,6.9-.66,4.29,0,7.45.63,9.46,1.88,2.01,1.25,3.02,2.96,3.02,5.12,0,1.52-.48,3.01-1.44,4.46s-2.49,2.81-4.6,4.06c-2.11,1.25-4.89,2.36-8.34,3.32s-7.7,1.72-12.74,2.28l-.48-3.52c5.07-.64,9.34-1.41,12.82-2.3,3.48-.89,6.11-1.97,7.88-3.24,1.77-1.27,2.66-2.77,2.66-4.5,0-1.07-.38-1.89-1.14-2.48s-1.76-.99-3-1.22c-1.24-.23-2.61-.34-4.1-.34-2.05,0-4.14.19-6.26.58-2.12.39-4.17.93-6.14,1.62s-3.8,1.52-5.48,2.48l-1.72-3.2c1.87-.93,3.87-1.78,6.02-2.54ZM49.57,44.82c-1.04,1.77-2.2,3.63-3.48,5.58-1.28,1.95-2.61,3.92-3.98,5.92-1.37,2-2.75,3.94-4.12,5.82-1.37,1.88-2.69,3.63-3.94,5.26l-3.04-2.24c1.17-1.57,2.42-3.28,3.74-5.12s2.65-3.75,3.98-5.72c1.33-1.97,2.62-3.93,3.86-5.88s2.39-3.79,3.44-5.54c1.05-1.75,1.94-3.3,2.66-4.66l3.48,1.76c-.69,1.44-1.56,3.05-2.6,4.82ZM41.63,59.62c1.35,1.85,2.79,3.39,4.34,4.6,1.55,1.21,3.35,2.17,5.4,2.86l-1.24,3.4c-2.29-.69-4.35-1.68-6.16-2.96s-3.53-2.94-5.14-4.98c-1.61-2.04-3.26-4.54-4.94-7.5l3.52-2c1.47,2.53,2.87,4.73,4.22,6.58Z"/>
    <g>
      <path class="cls-1" d="M67.27,57.22c-.94,0-1.92.19-2.95.58-1.03.38-2,.89-2.9,1.53-.9.64-1.63,1.34-2.2,2.12-.56.78-.85,1.59-.85,2.43,0,.38.1.69.31.92.2.23.5.34.88.34.79,0,1.87-.31,3.22-.92,1.36-.61,3.02-1.73,4.99-3.37.34-.31.61-.58.83-.79.22-.22.42-.42.61-.61l2.77,1.69c-.12.41-.23.86-.32,1.37s-.14,1.06-.14,1.66c0,.38.13.65.4.81.26.16.65.19,1.15.09l.47,2.92c-1.08.29-2.05.4-2.9.32-.85-.07-1.53-.39-2.03-.95-.5-.56-.76-1.46-.76-2.68,0-.67.09-1.37.27-2.09.18-.72.39-1.43.63-2.12l2.12,1.48c-.22.19-.43.38-.65.58-.22.19-.45.4-.68.61-2.28,1.99-4.31,3.35-6.08,4.09s-3.28,1.1-4.5,1.1c-1.32,0-2.35-.32-3.1-.95-.74-.64-1.12-1.6-1.12-2.9,0-1.1.25-2.17.74-3.19.49-1.02,1.17-1.97,2.03-2.86.86-.89,1.85-1.66,2.95-2.32s2.26-1.17,3.47-1.53c1.21-.36,2.39-.54,3.55-.54,1.32,0,2.41.15,3.26.45.85.3,1.59.76,2.21,1.39l-2.2,2.56c-.79-.79-1.96-1.19-3.49-1.19Z"/>
      <path class="cls-1" d="M93.82,46.31c-.66.65-1.33,1.34-2,2.07s-1.32,1.46-1.94,2.2c-.62.73-1.18,1.39-1.66,1.96-.98,1.27-2.47,3.23-4.46,5.89-1.99,2.65-4.44,5.93-7.34,9.85l-2.74-1.98c1.85-2.45,3.55-4.7,5.09-6.77,1.55-2.06,2.91-3.87,4.09-5.42,1.18-1.55,2.09-2.74,2.74-3.58.53-.7,1.13-1.43,1.82-2.2.68-.77,1.39-1.54,2.11-2.3.72-.77,1.42-1.48,2.11-2.14.68-.66,1.29-1.21,1.82-1.64l2.16,2.45c-.53.43-1.12.97-1.78,1.62ZM77.6,58.84c.77.26,1.57.47,2.41.61.84.14,1.54.22,2.09.22,1.34,0,2.57-.12,3.69-.36,1.12-.24,2.02-.76,2.72-1.55.36-.41.63-.91.81-1.51s.28-1.3.31-2.09l3.49.07c.1.91.02,1.79-.23,2.65s-.65,1.61-1.21,2.29c-.91,1.18-2.22,2.08-3.92,2.7-1.7.62-3.74.94-6.12.94-.79,0-1.66-.1-2.61-.29-.95-.19-1.84-.46-2.68-.81-.84-.35-1.52-.74-2.05-1.17l1.55-2.59c.41.34,1,.64,1.76.9ZM82.14,62.35c1.08,1.38,2.12,2.35,3.13,2.92,1.01.56,2.06.85,3.17.85,1.42,0,2.81-.34,4.19-1.03,1.38-.68,2.86-1.7,4.45-3.04l1.91,2.48c-1.82,1.54-3.61,2.72-5.35,3.55-1.74.83-3.52,1.24-5.35,1.24-1.13,0-2.19-.16-3.19-.49-1-.32-1.96-.83-2.88-1.53-.92-.7-1.83-1.62-2.72-2.77-.77-1.03-1.43-2.05-1.98-3.06-.55-1.01-1.12-2.18-1.69-3.53l2.77-1.3c1.27,2.42,2.45,4.33,3.53,5.71Z"/>
      <path class="cls-1" d="M111.78,45.32c-.92.73-1.83,1.54-2.72,2.43-.89.89-1.73,1.8-2.52,2.74-.55.65-1.17,1.45-1.85,2.41-.68.96-1.39,2.01-2.12,3.15-.73,1.14-1.45,2.32-2.14,3.53-.7,1.21-1.32,2.39-1.87,3.55-.1.19-.14.32-.14.4,0,.1.05.14.14.14.14,0,.47-.1.97-.29.82-.26,1.67-.59,2.57-.97.9-.38,1.82-.81,2.75-1.28.94-.47,1.85-.97,2.74-1.49,1.3-.74,2.16-1.34,2.59-1.8.43-.46.65-.83.65-1.12,0-.14-.04-.25-.13-.31-.08-.06-.21-.09-.38-.09-.1,0-.2.01-.32.04-.12.02-.2.05-.25.07l-.9-2.81c.31-.12.7-.25,1.15-.38.46-.13.95-.2,1.48-.2.86,0,1.59.24,2.18.72.59.48.88,1.16.88,2.05,0,1.1-.48,2.2-1.44,3.28-.96,1.08-2.41,2.18-4.36,3.31-1.01.6-2.08,1.19-3.2,1.78-1.13.59-2.28,1.13-3.46,1.62-1.18.49-2.38.92-3.6,1.28-.53.17-1.05.3-1.57.4-.52.1-.97.14-1.35.14-.5,0-.91-.13-1.21-.38-.3-.25-.45-.67-.45-1.24s.16-1.21.47-1.91.73-1.52,1.26-2.48c.58-1.13,1.22-2.3,1.94-3.51s1.46-2.41,2.21-3.6c.76-1.19,1.48-2.29,2.18-3.31.7-1.02,1.32-1.88,1.87-2.57.94-1.17,1.91-2.28,2.92-3.31,1.01-1.03,2.04-1.94,3.1-2.72,1.06-.78,2.09-1.4,3.1-1.85l1.48,2.84c-.84.43-1.72,1.01-2.65,1.75ZM102.94,51.21c1.56-.55,3.12-1.18,4.68-1.87,1.56-.7,3.01-1.42,4.34-2.18,1.33-.76,2.43-1.51,3.29-2.25l2.09,2.34c-1.03.89-2.25,1.75-3.65,2.57s-2.91,1.61-4.52,2.34c-1.61.73-3.24,1.4-4.9,2-1.66.6-3.24,1.13-4.75,1.58l-.94-3.17c1.34-.36,2.8-.82,4.36-1.37ZM106.36,63.05c.43.98.94,1.67,1.53,2.07.59.4,1.37.59,2.36.59,1.27,0,2.62-.3,4.03-.9,1.42-.6,2.93-1.55,4.54-2.84l1.84,2.41c-1.75,1.49-3.53,2.6-5.33,3.33-1.8.73-3.62,1.1-5.47,1.1-1.46,0-2.71-.26-3.74-.79-1.03-.53-1.91-1.43-2.63-2.72s-1.34-3.07-1.87-5.35l3.38-.97c.48,1.73.94,3.08,1.37,4.07Z"/>
      <path class="cls-1" d="M129.19,57.54c-.46-.1-.95-.14-1.48-.14-.72,0-1.48.13-2.27.38s-1.58.6-2.36,1.04c-.78.44-1.49.95-2.14,1.51-.65.56-1.16,1.16-1.55,1.8s-.58,1.28-.58,1.93c0,.19.05.34.14.43.1.1.24.14.43.14.48,0,1.25-.25,2.3-.76,1.06-.5,2.41-1.24,4.07-2.2,2.14-1.2,3.86-2.14,5.18-2.83,1.32-.68,2.46-1.03,3.42-1.03s1.7.2,2.16.59c.46.4.68.92.68,1.57,0,.48-.1.95-.31,1.42-.2.47-.53,1.04-.99,1.71-.19.29-.34.52-.45.68-.11.17-.16.31-.16.43,0,.14.06.24.18.29.12.05.3.07.54.07,1.01,0,2.18-.24,3.51-.72,1.33-.48,2.71-1.13,4.14-1.96,1.43-.83,2.81-1.75,4.16-2.77,1.34-1.02,2.53-2.06,3.56-3.11l2.38,2.05c-.6.7-1.18,1.46-1.75,2.29-.56.83-1.03,1.59-1.39,2.29-.36.7-.54,1.2-.54,1.51,0,.05.01.08.04.11.02.02.05.04.07.04.1,0,.25-.08.47-.23.22-.16.6-.46,1.15-.92,1.87-1.58,3.52-2.9,4.93-3.94s2.66-1.87,3.74-2.48c1.08-.61,2.04-1.05,2.88-1.31.84-.26,1.63-.4,2.38-.4,1.1,0,1.94.26,2.5.77.56.52.85,1.21.85,2.07,0,.67-.13,1.33-.38,1.98s-.64,1.46-1.17,2.45c-.22.41-.42.82-.61,1.22s-.29.77-.29,1.08c0,.29.11.5.32.63s.52.2.9.2c.82,0,1.76-.14,2.83-.41,1.07-.28,2.17-.65,3.31-1.12s2.24-.98,3.29-1.53l1.37,2.74c-1.25.7-2.54,1.31-3.87,1.84-1.33.53-2.65.94-3.94,1.24s-2.53.45-3.71.45c-1.49,0-2.56-.3-3.2-.9-.65-.6-.97-1.42-.97-2.45,0-.65.14-1.35.43-2.11s.65-1.55,1.08-2.39c.34-.62.58-1.08.72-1.37s.22-.55.22-.79c0-.26-.18-.4-.54-.4-.55,0-1.33.27-2.32.81-1,.54-2.26,1.38-3.8,2.52-1.54,1.14-3.43,2.61-5.69,4.41-.65.53-1.31.98-2,1.37-.68.38-1.39.58-2.11.58-.67,0-1.24-.23-1.69-.68-.46-.46-.68-1.13-.68-2.02,0-.43.08-.91.23-1.44.16-.53.39-1.07.7-1.62l.61.61c-1.44,1.06-2.92,1.96-4.43,2.7s-2.98,1.31-4.41,1.69c-1.43.38-2.73.58-3.91.58-1.34,0-2.3-.23-2.88-.7-.58-.47-.86-1.15-.86-2.03,0-.36.08-.75.23-1.17.16-.42.39-.86.7-1.31.14-.26.27-.47.38-.63.11-.16.16-.28.16-.38,0-.17-.1-.25-.29-.25-.24,0-.57.11-.99.34-.42.23-1,.58-1.75,1.06-.74.48-1.72,1.08-2.92,1.8-2.02,1.22-3.72,2.09-5.11,2.59-1.39.5-2.51.76-3.35.76-1.25,0-2.16-.3-2.72-.9-.56-.6-.85-1.42-.85-2.45s.26-2.12.79-3.13c.53-1.01,1.24-1.94,2.14-2.81.9-.86,1.9-1.62,3.01-2.27,1.1-.65,2.25-1.15,3.44-1.51,1.19-.36,2.32-.54,3.4-.54.91,0,1.67.07,2.27.22.6.14,1.19.41,1.76.79l-1.4,2.88c-.48-.26-.95-.44-1.4-.54Z"/>
    </g>
  </g>
</svg>