<?xml version="1.0" encoding="UTF-8"?>
<svg id="_ロゴ" data-name="ロゴ" xmlns="http://www.w3.org/2000/svg" viewBox="0 0 100 100">
  <defs>
    <style>
      .cls-1 {
        fill: #b01e24;
      }
    </style>
  </defs>
  <g id="logo-color-outline">
    <path class="cls-1" d="M72.51,83.3c-1.07,0-2.07-.42-2.83-1.17l-14.29-14.29c-.57-.57-.74-1.43-.43-2.18.31-.75,1.04-1.23,1.85-1.23h2.09c2.89,0,5.24-2.35,5.24-5.23v-.83c0-.81.49-1.54,1.23-1.85.75-.31,1.61-.14,2.18.43l13.65,13.65c.76.75,1.18,1.75,1.18,2.83,0,1.07-.42,2.08-1.18,2.83l-5.86,5.87c-.76.76-1.76,1.17-2.83,1.17ZM61.32,68.1l11.2,11.2,5.86-5.87s0,0,.01,0h0s-10.88-10.87-10.88-10.87c-1.06,2.7-3.36,4.78-6.19,5.55Z"/>
    <path class="cls-1" d="M42.89,54.22h0c-.53,0-1.04-.21-1.41-.59l-5.06-5.06c-2.73-2.73-2.73-7.17,0-9.9l1.34-1.34c2.73-2.73,7.17-2.73,9.9,0l5.06,5.06c.78.78.78,2.05,0,2.83l-8.41,8.41c-.38.38-.88.59-1.41.59ZM42.71,39.29c-.77,0-1.54.29-2.12.88l-1.34,1.34c-1.17,1.17-1.17,3.07,0,4.24l3.64,3.64,5.58-5.58-3.64-3.64c-.58-.58-1.35-.88-2.12-.88Z"/>
    <path class="cls-1" d="M46.64,84.12h-17.71c-6.24,0-11.31-5.07-11.31-11.3v-35.75c0-11.69,9.51-21.2,21.21-21.2h25.14c6.93,0,12.57,5.64,12.57,12.57l-.07,15.16c0,6.54-3.01,10.59-8.33,11.38v4.21c0,5.09-4.15,9.23-9.24,9.23h-2.19v5.64c0,5.55-4.52,10.06-10.07,10.06ZM38.83,19.88c-9.49,0-17.21,7.72-17.21,17.2v35.75c0,4.02,3.28,7.3,7.31,7.3h17.71c3.35,0,6.07-2.72,6.07-6.06v-7.04c0-1.43,1.17-2.6,2.6-2.6h3.59c2.89,0,5.24-2.35,5.24-5.23v-6.07c0-1.1.9-2,2-2,2.72,0,6.33-.78,6.33-7.53l.07-15.16c0-4.72-3.84-8.56-8.57-8.56h-25.14Z"/>
  </g>
</svg>